PathFileType	4	(X/Y/Z)	C:/Users/beibeiliu/ov580/test_trc/capture2\sequence.16_training_dense_right.trc
DataRate	CameraRate	NumFrames	NumMarkers	Units	OrigDataRate	OrigDataStartFrame	OrigNumFrames
120	120	12	19	mm	120	1	400
Frame#	Time	ThumbCMC			ThumbMCP			ThumbIP			ThumbTip			IndexMCP			IndexPIP			IndexTip			MiddleMCP			MiddlePIP			MiddleTip			RingMCP			RingPIP			RingTip			PinkyMCP			PinkyPIP			PinkyTip			BackHand1			BackHand2			BackHand3	
		X0	Y0	Z0	X1	Y1	Z1	X2	Y2	Z2	X3	Y3	Z3	X4	Y4	Z4	X5	Y5	Z5	X6	Y6	Z6	X7	Y7	Z7	X8	Y8	Z8	X9	Y9	Z9	X10	Y10	Z10	X11	Y11	Z11	X12	Y12	Z12	X13	Y13	Z13	X14	Y14	Z14	X15	Y15	Z15	X16	Y16	Z16	X17	Y17	Z17	X18	Y18	Z18	
0	0	137.153	37.667	-27.9089	113.621	29.5649	-47.2199	98.9861	29.0251	-70.4508	88.5948	28.5818	-89.9706	149.409	62.0252	-98.0863	148.747	64.246	-126.836	148.531	68.6722	-147.693	166.88	39.0994	-109.337	155.728	8.99513	-116.14	154.573	-0.00820332	-79.1805	181.24	27.5963	-105.795	170.122	-0.984472	-102.941	166.289	1.4406	-68.1546	195.728	21.0656	-96.6871	182.291	-5.21776	-92.5905	174.809	-0.553178	-61.9671	192.974	54.0589	-55.9681	193.5	53.6429	-23.1184	162.893	59.9923	-36.2353	
1	0.00833333	134.331	38.8429	-31.8489	117.714	28.9735	-46.2856	100.126	30.0099	-71.2897	85.5727	28.7983	-86.0164	149.092	62.0698	-97.4005	147.196	66.7566	-125.204	153.249	68.5573	-150.244	162.039	38.6444	-106.256	152.493	5.02646	-108.293	152.713	2.49599	-72.006	176.193	24.9737	-104.47	172.695	-3.0345	-97.5101	164.55	5.38832	-62.894	193.159	19.8146	-93.0291	179.07	-5.35269	-83.6439	172.286	9.67588	-56.4619	192.026	53.9675	-55.5105	193.076	52.6565	-22.9998	161.743	61.762	-38.3047	
2	0.0166667	133.099	38.5627	-26.1734	117.267	29.7584	-48.5044	98.1118	30.9681	-69.4669	87.4452	30.9711	-87.5272	149.416	62.7954	-97.4175	146.269	66.5869	-121.133	154.12	68.8384	-146.325	159.688	34.0409	-108.39	150.776	4.30628	-104.508	152.453	5.37061	-66.8413	177.626	23.3892	-101.606	167.37	-1.4697	-93.1148	165.084	7.39905	-59.3333	190.486	18.4923	-92.7556	179.051	-4.0433	-79.3574	172.999	9.72692	-52.9633	192.471	54.513	-56.458	195.71	53.4554	-25.413	163.592	62.1108	-36.3583	
3	0.025	131.498	39.6516	-29.1962	114.659	30.0446	-45.5242	97.73	31.7929	-70.6228	83.7618	31.0865	-87.2725	147.059	63.4947	-96.0119	146.794	66.8099	-125.568	155.372	68.7365	-147.883	163.528	33.7952	-106.698	153.466	2.13694	-101.1	154.381	6.00991	-66.0382	174.46	22.1613	-101.769	165.327	-3.81673	-86.2611	163.499	10.1165	-56.7244	190.015	18.6359	-91.0292	177.903	-3.18187	-78.0769	173.947	15.1492	-48.2076	189.847	56.854	-56.325	193.775	51.276	-22.7548	159.399	62.4564	-39.6284	
4	0.0333333	130.656	40.9319	-30.4722	115.901	30.2945	-46.8511	97.5589	31.8199	-68.8218	83.9533	31.2413	-87.5253	149.51	63.5385	-99.9946	146.555	66.0737	-122.649	155.364	66.8728	-147.292	160.094	36.5728	-103.95	151.248	2.54556	-99.2867	150.888	5.30714	-65.7027	175.838	24.5844	-97.5418	162.463	-2.45839	-84.152	163.208	11.6505	-53.4673	192.704	18.1607	-89.1563	174.98	-3.41231	-72.8718	174.842	16.5415	-47.7381	191.037	55.0966	-53.5186	197.197	52.2849	-22.8857	165.296	60.85	-36.3869	
5	0.0416667	131.064	39.8512	-31.9464	117.835	29.0273	-48.2259	100.222	28.9689	-65.5371	85.3655	29.5659	-84.2085	145.764	62.3951	-99.2763	150.082	63.3866	-125.358	149.277	68.1044	-150.885	162.146	34.7476	-104.015	154.169	2.05046	-101.557	150.835	4.70438	-66.229	173.287	21.6927	-98.8686	166.194	-4.4772	-85.2121	161.868	9.60335	-55.959	191.25	14.5977	-90.1601	175.885	-3.0667	-75.2715	175.29	17.3236	-44.6148	194.385	53.6736	-56.8215	193.748	52.329	-25.8877	164.258	61.2807	-40.609	
6	0.05	133.003	38.724	-31.3867	114.052	29.667	-46.0677	94.8542	30.1355	-67.0881	81.4125	28.6328	-82.1103	146.68	61.7191	-99.619	144.716	64.4473	-126.233	153.843	65.4225	-149.694	158.816	34.4356	-105.022	151.639	2.56545	-101.165	151.263	6.32353	-64.7396	176.795	19.8459	-99.5832	166.897	-5.00483	-84.2955	164.678	8.78302	-54.162	190.71	17.9785	-88.8586	177.725	-4.30936	-71.2403	175.448	18.0348	-45.2619	190.873	55.5674	-54.0499	191.067	52.6073	-23.6417	161.436	60.9975	-40.0188	
7	0.0583333	132.027	37.9883	-27.1884	114.324	29.287	-46.5933	96.4077	29.2078	-66.6349	81.243	29.2271	-84.0407	145.165	62.3752	-100.177	148.078	62.38	-128.041	152.188	66.0129	-152.521	160.542	31.113	-105.616	151.749	1.33412	-99.5141	153.913	8.53799	-61.3628	177.161	17.7874	-98.9287	167.345	-5.99852	-82.4974	161.787	9.17143	-54.6464	191.971	17.9249	-88.9743	176.944	-4.23451	-75.1149	174.847	14.4673	-44.4602	190.244	56.3616	-58.3552	192.135	52.8547	-22.0137	159.613	61.6054	-37.0803	
8	0.0666667	134.163	38.1692	-32.4572	114.321	28.6276	-46.3558	98.7402	28.4649	-65.5407	82.2862	27.8654	-82.1617	147.068	60.9043	-101.417	146.671	63.1153	-126.276	152.893	64.7559	-147.706	161.779	32.1324	-105.244	152.616	0.203484	-97.7435	151.459	4.49589	-66.2264	176.002	22.7034	-97.8822	165.807	-4.08361	-85.7312	163.576	11.3025	-52.6194	191.905	15.8002	-89.7608	175.312	-3.04865	-73.5515	177	12.2462	-45.8929	194.423	55.2341	-56.9942	194.878	52.0702	-25.2485	162.834	59.8073	-36.6759	
9	0.075	131.91	38.834	-27.4945	113.739	28.2344	-47.1169	97.1272	28.8839	-65.2448	81.3078	29.1845	-83.8783	149.078	61.1917	-101.043	144.455	62.5572	-123.163	151.608	64.57	-151.015	158.061	31.7272	-107.26	152.068	0.556928	-98.5323	150.028	4.50492	-65.6441	176.907	22.3008	-98.0494	165.001	-3.48896	-86.2279	162.204	10.2755	-54.4085	193.527	14.4129	-90.0137	176.423	-4.14401	-73.623	172.129	13.8843	-47.2739	189.187	53.7918	-54.3622	194.327	51.4596	-26.4329	164.837	61.2439	-36.0645	
10	0.0833333	134.053	39.1535	-31.2305	111.519	29.928	-49.0123	93.9592	28.5269	-66.987	81.7685	28.309	-86.3136	146.451	61.2599	-97.7544	144.953	63.0615	-127.602	154.504	63.9058	-148.741	160.769	30.995	-106.213	155.503	0.76293	-101.929	152.882	5.02003	-65.5043	176.995	18.6121	-99.5149	166.224	-4.78856	-85.1871	163.139	9.72986	-54.1897	193.903	13.9153	-89.1969	176.686	-3.73272	-73.6232	172.975	17.0569	-45.8745	189.439	54.3501	-52.9346	193.022	53.3067	-22.3648	162.966	59.0723	-36.218	
11	0.0916667	132.711	37.4324	-27.2243	117.215	28.6565	-48.5883	95.2432	29.2149	-71.1065	79.9731	29.0037	-87.8954	145.253	61.0949	-100.675	147.662	62.1395	-127.059	152.734	62.9538	-152.252	159.24	33.7542	-104.253	153.911	0.0717849	-100.566	149.729	5.028	-64.9186	176.843	19.4043	-99.5115	167.62	-5.16641	-84.6792	162.863	11.9493	-54.0969	188.08	14.4336	-89.8939	175.915	-4.39375	-70.6886	175.462	15.7709	-45.703	191.313	54.3227	-58.0037	192.108	52.4124	-24.1119	158.804	60.0478	-40.2139	
